<?xml version="1.0" encoding="UTF-8" standalone="no"?>
<!-- Created with Inkscape (http://www.inkscape.org/) -->

<svg
   xmlns:osb="http://www.openswatchbook.org/uri/2009/osb"
   xmlns:dc="http://purl.org/dc/elements/1.1/"
   xmlns:cc="http://creativecommons.org/ns#"
   xmlns:rdf="http://www.w3.org/1999/02/22-rdf-syntax-ns#"
   xmlns:svg="http://www.w3.org/2000/svg"
   xmlns="http://www.w3.org/2000/svg"
   xmlns:sodipodi="http://sodipodi.sourceforge.net/DTD/sodipodi-0.dtd"
   xmlns:inkscape="http://www.inkscape.org/namespaces/inkscape"
   version="1.1"
   id="svg4485"
   width="232"
   height="267"
   viewBox="0 0 232 267"
   sodipodi:docname="02.svg"
   inkscape:version="0.92.1 r15371">
  <metadata
     id="metadata4491">
    <rdf:RDF>
      <cc:Work
         rdf:about="">
        <dc:format>image/svg+xml</dc:format>
        <dc:type
           rdf:resource="http://purl.org/dc/dcmitype/StillImage" />
        <dc:title></dc:title>
      </cc:Work>
    </rdf:RDF>
  </metadata>
  <defs
     id="defs4489">
    <pattern
       inkscape:stockid="Stripes 1:64"
       id="Strips1_64"
       patternTransform="translate(0,0) scale(10,10)"
       height="1"
       width="65"
       patternUnits="userSpaceOnUse"
       inkscape:collect="always">
      <rect
         id="rect6565"
         height="2"
         width="1"
         y="-0.5"
         x="0"
         style="fill:black;stroke:none" />
    </pattern>
    <inkscape:path-effect
       effect="bspline"
       id="path-effect8123"
       is_visible="true"
       weight="33.333333"
       steps="2"
       helper_size="0"
       apply_no_weight="true"
       apply_with_weight="true"
       only_selected="false" />
    <linearGradient
       id="linearGradient8115"
       osb:paint="solid">
      <stop
         style="stop-color:#d40000;stop-opacity:1;"
         offset="0"
         id="stop8113" />
    </linearGradient>
    <inkscape:path-effect
       effect="bspline"
       id="path-effect8065"
       is_visible="true"
       weight="33.333333"
       steps="2"
       helper_size="0"
       apply_no_weight="true"
       apply_with_weight="true"
       only_selected="false" />
    <inkscape:path-effect
       effect="spiro"
       id="path-effect8061"
       is_visible="true" />
    <inkscape:path-effect
       effect="bspline"
       id="path-effect8037"
       is_visible="true"
       weight="33.333333"
       steps="2"
       helper_size="0"
       apply_no_weight="true"
       apply_with_weight="true"
       only_selected="false" />
    <inkscape:path-effect
       effect="bspline"
       id="path-effect8003"
       is_visible="true"
       weight="33.333333"
       steps="2"
       helper_size="0"
       apply_no_weight="true"
       apply_with_weight="true"
       only_selected="false" />
    <inkscape:path-effect
       effect="bspline"
       id="path-effect7999"
       is_visible="true"
       weight="33.333333"
       steps="2"
       helper_size="0"
       apply_no_weight="true"
       apply_with_weight="true"
       only_selected="false" />
    <inkscape:path-effect
       effect="bspline"
       id="path-effect7995"
       is_visible="true"
       weight="33.333333"
       steps="2"
       helper_size="0"
       apply_no_weight="true"
       apply_with_weight="true"
       only_selected="false" />
    <inkscape:path-effect
       effect="bspline"
       id="path-effect7991"
       is_visible="true"
       weight="33.333333"
       steps="2"
       helper_size="0"
       apply_no_weight="true"
       apply_with_weight="true"
       only_selected="false" />
    <inkscape:path-effect
       effect="bspline"
       id="path-effect7987"
       is_visible="true"
       weight="33.333333"
       steps="2"
       helper_size="0"
       apply_no_weight="true"
       apply_with_weight="true"
       only_selected="false" />
    <inkscape:path-effect
       effect="bspline"
       id="path-effect7983"
       is_visible="true"
       weight="33.333333"
       steps="2"
       helper_size="0"
       apply_no_weight="true"
       apply_with_weight="true"
       only_selected="false" />
    <inkscape:path-effect
       effect="spiro"
       id="path-effect7979"
       is_visible="true" />
    <inkscape:path-effect
       effect="bspline"
       id="path-effect7973"
       is_visible="true"
       weight="33.333333"
       steps="2"
       helper_size="0"
       apply_no_weight="true"
       apply_with_weight="true"
       only_selected="false" />
    <inkscape:path-effect
       effect="spiro"
       id="path-effect7967"
       is_visible="true" />
    <inkscape:path-effect
       effect="spiro"
       id="path-effect7963"
       is_visible="true" />
    <inkscape:path-effect
       effect="spiro"
       id="path-effect7959"
       is_visible="true" />
    <inkscape:path-effect
       effect="spiro"
       id="path-effect7947"
       is_visible="true" />
    <inkscape:path-effect
       effect="spiro"
       id="path-effect7943"
       is_visible="true" />
    <inkscape:path-effect
       effect="spiro"
       id="path-effect7939"
       is_visible="true" />
    <inkscape:path-effect
       effect="spiro"
       id="path-effect7935"
       is_visible="true" />
    <inkscape:path-effect
       effect="spiro"
       id="path-effect7931"
       is_visible="true" />
    <inkscape:path-effect
       effect="spiro"
       id="path-effect7927"
       is_visible="true" />
    <inkscape:path-effect
       effect="spiro"
       id="path-effect7923"
       is_visible="true" />
    <inkscape:path-effect
       effect="spiro"
       id="path-effect7919"
       is_visible="true" />
    <inkscape:path-effect
       effect="spiro"
       id="path-effect7915"
       is_visible="true" />
    <inkscape:path-effect
       effect="spiro"
       id="path-effect7911"
       is_visible="true" />
    <inkscape:path-effect
       effect="spiro"
       id="path-effect7907"
       is_visible="true" />
    <inkscape:path-effect
       effect="spiro"
       id="path-effect7880"
       is_visible="true" />
    <inkscape:path-effect
       effect="spiro"
       id="path-effect7876"
       is_visible="true" />
    <inkscape:path-effect
       effect="spiro"
       id="path-effect7872"
       is_visible="true" />
    <inkscape:path-effect
       effect="spiro"
       id="path-effect7868"
       is_visible="true" />
    <inkscape:path-effect
       effect="spiro"
       id="path-effect7862"
       is_visible="true" />
    <inkscape:path-effect
       effect="spiro"
       id="path-effect7858"
       is_visible="true" />
    <inkscape:path-effect
       effect="spiro"
       id="path-effect7854"
       is_visible="true" />
    <inkscape:path-effect
       effect="spiro"
       id="path-effect7850"
       is_visible="true" />
    <inkscape:path-effect
       effect="spiro"
       id="path-effect7844"
       is_visible="true" />
    <inkscape:path-effect
       effect="spiro"
       id="path-effect7836"
       is_visible="true" />
    <inkscape:path-effect
       effect="spiro"
       id="path-effect7832"
       is_visible="true" />
    <inkscape:path-effect
       effect="spiro"
       id="path-effect7828"
       is_visible="true" />
    <inkscape:path-effect
       effect="spiro"
       id="path-effect5139"
       is_visible="true" />
    <inkscape:path-effect
       effect="spiro"
       id="path-effect5135"
       is_visible="true" />
    <inkscape:path-effect
       effect="spiro"
       id="path-effect5131"
       is_visible="true" />
    <inkscape:path-effect
       effect="spiro"
       id="path-effect5109"
       is_visible="true" />
    <inkscape:path-effect
       effect="spiro"
       id="path-effect5105"
       is_visible="true" />
    <inkscape:path-effect
       effect="spiro"
       id="path-effect5109-3"
       is_visible="true" />
    <inkscape:path-effect
       effect="bspline"
       id="path-effect8003-1"
       is_visible="true"
       weight="33.333333"
       steps="2"
       helper_size="0"
       apply_no_weight="true"
       apply_with_weight="true"
       only_selected="false" />
    <inkscape:path-effect
       effect="bspline"
       id="path-effect7999-2"
       is_visible="true"
       weight="33.333333"
       steps="2"
       helper_size="0"
       apply_no_weight="true"
       apply_with_weight="true"
       only_selected="false" />
    <inkscape:path-effect
       effect="bspline"
       id="path-effect7991-8"
       is_visible="true"
       weight="33.333333"
       steps="2"
       helper_size="0"
       apply_no_weight="true"
       apply_with_weight="true"
       only_selected="false" />
    <inkscape:path-effect
       effect="bspline"
       id="path-effect8037-3"
       is_visible="true"
       weight="33.333333"
       steps="2"
       helper_size="0"
       apply_no_weight="true"
       apply_with_weight="true"
       only_selected="false" />
  </defs>
  <sodipodi:namedview
     pagecolor="#ffffff"
     bordercolor="#666666"
     borderopacity="1"
     objecttolerance="10"
     gridtolerance="10"
     guidetolerance="10"
     inkscape:pageopacity="0"
     inkscape:pageshadow="2"
     inkscape:window-width="1920"
     inkscape:window-height="1018"
     id="namedview4487"
     showgrid="false"
     inkscape:zoom="3.1797753"
     inkscape:cx="70.995109"
     inkscape:cy="129.7822"
     inkscape:window-x="-8"
     inkscape:window-y="-8"
     inkscape:window-maximized="1"
     inkscape:current-layer="svg4485" />
  <g
     id="g000"
     inkscape:label="#g5148">
    <path
       inkscape:original-d="M 113.85668,12.603158 C 97.223742,12.462836 52.887342,31.443288 44.475267,41.700523 34.626734,53.709297 31.008031,61.267382 28.019418,72.151471 c -3.428775,12.487096 -3.168834,12.313756 0.444753,28.653079 3.305749,14.94739 4.075453,21.02661 12.008322,26.82413 7.909788,5.78066 12.454075,4.84854 18.679613,7.27435 6.225537,2.42579 15.626195,-4.46998 19.034965,-5.68134 10.641986,-3.57004 12.441953,-6.24198 28.598269,-5.99932 16.61782,0.24959 25.18104,3.59059 39.26387,6.01639 14.08284,2.42581 29.00227,2.73545 35.40988,-4.33796 7.76637,-8.57335 4.41844,-2.81928 8.4503,-11.8208 4.25638,-9.50279 9.07592,-21.160903 8.89506,-34.098478 C 198.64028,67.237387 179.1622,33.491363 162.33473,24.423962 143.07793,14.047528 132.68555,12.762005 113.85668,12.603158 Z"
       inkscape:path-effect="#path-effect5109"
       inkscape:connector-curvature="0"
       id="path5107"
       d="M 113.85668,12.603158 C 88.069871,12.820235 61.9989,22.781513 44.475267,41.700523 36.53674,50.271181 30.361975,60.706436 28.019418,72.151471 c -1.926934,9.414424 -1.223367,19.189368 0.444753,28.653079 0.865228,4.90868 1.994597,9.79625 3.870147,14.41427 1.875549,4.61802 4.525331,8.97604 8.138175,12.40986 4.975073,4.72855 11.821415,7.54942 18.679613,7.27435 6.650972,-0.26676 12.826031,-3.28223 19.034965,-5.68134 9.132395,-3.52872 18.809483,-5.81986 28.598269,-5.99932 13.27,-0.24329 26.25981,3.36188 39.26387,6.01639 6.04092,1.23313 12.18891,2.26941 18.34364,1.9053 6.15474,-0.36412 12.3802,-2.23647 17.06624,-6.24326 3.70607,-3.16887 6.24821,-7.47023 8.4503,-11.8208 5.35885,-10.58721 9.15266,-22.23509 8.89506,-34.098478 C 198.55583,67.531813 194.4793,56.301061 187.911,46.919424 181.3427,37.537787 172.35601,29.967576 162.33473,24.423962 147.61902,16.28346 130.67334,12.461593 113.85668,12.603158 Z"
       style="fill:none;stroke:#000000;stroke-width:1.01106143px;stroke-linecap:butt;stroke-linejoin:miter;stroke-opacity:1"
       sodipodi:nodetypes="sssssccsssssss" />
    <path
       sodipodi:nodetypes="sszssssscsssss"
       inkscape:original-d="m 113.09477,31.350785 c -12.94638,-0.378396 -39.753358,10.269521 -46.861103,16.307006 -6.858246,5.825554 -13.747693,11.634558 -18.287768,20.67733 -4.540074,9.042772 -5.742145,18.743883 -2.721425,29.673499 3.022716,10.93684 3.166968,8.51334 8.974422,14.1053 4.901251,4.71938 9.455248,3.35495 18.210071,1.35264 8.061587,-1.84376 11.816803,-2.43264 18.697802,-3.78958 6.576564,-1.29691 10.184731,-1.92986 21.229121,-1.21482 10.93011,0.70764 22.09514,3.27309 33.14154,4.91066 11.0464,1.63759 16.16196,3.59646 22.42282,-0.43189 6.21337,-3.9978 8.13064,-8.03457 9.74158,-11.09309 2.41948,-4.593619 4.20125,-13.446177 3.41915,-23.463494 -0.74563,-9.550238 -14.66623,-29.497727 -28.60637,-36.829972 -11.34493,-5.96721 -24.46011,-9.7681 -39.35984,-10.203589 z"
       inkscape:path-effect="#path-effect5109-3"
       inkscape:connector-curvature="0"
       id="path5107-9"
       d="M 113.09477,31.350785 C 96.292892,31.611633 79.794759,37.734691 66.233667,47.657791 58.73135,53.147485 51.953863,59.94717 47.945899,68.335121 c -4.36862,9.142738 -5.176415,19.842552 -2.721425,29.673499 0.693235,2.77604 1.645113,5.50804 3.095698,7.97437 1.450584,2.46633 3.4213,4.66531 5.878724,6.13093 2.674705,1.59521 5.824961,2.26496 8.938258,2.34322 3.113296,0.0783 6.212436,-0.40839 9.271813,-0.99058 6.247867,-1.18896 12.418048,-2.78253 18.697802,-3.78958 7.010305,-1.1242 14.135441,-1.51144 21.229121,-1.21482 11.17124,0.46712 22.1979,2.61902 33.14154,4.91066 3.737,0.78254 7.49256,1.58498 11.30775,1.73279 3.81519,0.14781 7.73311,-0.39272 11.11507,-2.16468 4.43613,-2.32429 7.5887,-6.57129 9.74158,-11.09309 3.44932,-7.244793 4.67153,-15.537814 3.41915,-23.463494 C 179.80551,70.439118 176.11604,62.974623 171.02142,56.74985 165.92681,50.525078 159.46249,45.503098 152.45461,41.554374 140.50782,34.822733 126.80591,31.137921 113.09477,31.350785 Z"
       style="fill:none;stroke:#000000;stroke-width:0.73572588px;stroke-linecap:butt;stroke-linejoin:miter;stroke-opacity:1" />
  </g>
  <g
     id="g001"
     inkscape:label="#g5144"
     transform="rotate(1.1172455,3.715227,-67.600968)"
     style="fill-opacity:1;fill:url(#Strips1_64);stroke:#000000;stroke-opacity:1">
    <path
       inkscape:original-d="m 120.08322,257.21544 c 0.74026,-1.48151 14.82609,-24.90715 22.23764,-37.35922 7.41154,-12.45208 13.04707,-9.19256 19.56911,-13.78734 6.52204,-4.59477 11.26807,-0.8905 16.90061,-1.33425 5.63253,-0.44376 3.85552,-4.74503 5.78178,-7.11605 1.92626,-2.37101 -0.88851,-5.63453 -1.33426,-8.4503 -0.44575,-2.81577 -10.67306,-17.79111 -16.01109,-26.68516 -5.33804,-8.89405 -0.88851,-2.07651 -1.33426,-3.11327 -0.44575,-1.03675 -4.44653,2.37102 -6.67129,3.55802 -2.22477,1.18701 -15.12059,24.60865 -22.68239,36.91448 -7.56179,12.30582 -10.67306,5.03953 -16.0111,7.56079 -5.33803,2.52127 -21.050622,-16.9016 -31.577435,-25.3509 -10.526813,-8.4493 -5.03953,-10.37856 -7.560795,-15.56634 -2.521266,-5.18779 -3.557022,-1.48351 -5.337033,-2.22377 -1.78001,-0.74025 -2.667516,4.15003 -4.002774,6.22654 -1.335258,2.07651 -7.708046,7.70805 -11.563569,11.56357 -3.855523,3.85552 -4.446527,7.11504 -6.67129,10.67406 -2.224764,3.55902 2.373014,5.63254 3.558021,8.4503 1.185007,2.81777 5.931036,1.77801 8.895054,2.66852 2.964017,0.89051 23.42464,17.78911 35.135461,26.68516 11.71082,8.89605 9.19256,17.78911 13.78733,26.68516 4.59478,8.89605 1.78001,2.96402 2.66852,4.44753 0.8885,1.48351 1.48351,-2.96602 2.22376,-4.44753 z"
       inkscape:path-effect="#path-effect5131"
       inkscape:connector-curvature="0"
       id="path5129"
       d="m 120.08322,257.21544 c 0.0855,-7.43136 3.26771,-14.54192 7.53836,-20.6242 4.27064,-6.08227 9.61959,-11.31015 14.69928,-16.73502 2.78242,-2.97149 5.50641,-6.02519 8.68083,-8.57365 3.17442,-2.54846 6.86486,-4.59429 10.88828,-5.21369 2.81446,-0.43328 5.68197,-0.15775 8.52852,-0.0797 2.84655,0.0781 5.78594,-0.0626 8.37209,-1.2546 1.43989,-0.66365 2.73495,-1.64615 3.74159,-2.87105 1.00663,-1.22491 1.72154,-2.69188 2.04019,-4.245 0.58245,-2.83891 -0.16839,-5.79711 -1.33426,-8.4503 -2.09968,-4.77827 -5.4896,-8.84853 -8.64776,-13.00383 -3.15816,-4.1553 -6.18586,-8.59664 -7.36333,-13.68133 -0.12962,-0.55974 -0.23665,-1.12684 -0.42854,-1.66841 -0.19189,-0.54156 -0.47603,-1.06344 -0.90572,-1.44486 -0.54673,-0.4853 -1.30136,-0.70657 -2.03129,-0.66609 -0.72992,0.0405 -1.43346,0.32877 -2.02925,0.75241 -1.19157,0.84728 -1.93145,2.17699 -2.61075,3.4717 -3.37796,6.43824 -6.23685,13.14066 -9.68536,19.5414 -3.44851,6.40074 -7.54631,12.5615 -12.99703,17.37308 -4.49937,3.97179 -10.03542,7.00335 -16.0111,7.56079 -3.6126,0.337 -7.28977,-0.24281 -10.68135,-1.53184 -3.39159,-1.28902 -6.50044,-3.27694 -9.20032,-5.70079 -5.39976,-4.84772 -9.098691,-11.34236 -11.695765,-18.11827 -2.07904,-5.42433 -3.625396,-11.29335 -7.560795,-15.56634 -0.689971,-0.74916 -1.458891,-1.44732 -2.37287,-1.8967 -0.913978,-0.44938 -1.992035,-0.63082 -2.964163,-0.32707 -0.611959,0.19121 -1.157621,0.56584 -1.600368,1.02955 -0.442747,0.46372 -0.786575,1.01472 -1.064023,1.59272 -0.554895,1.15599 -0.849843,2.41871 -1.338383,3.60427 -1.050989,2.55048 -2.962272,4.65721 -5.054969,6.45447 -2.092696,1.79725 -4.394972,3.33651 -6.5086,5.1091 -1.649285,1.38317 -3.190474,2.91824 -4.395515,4.70182 -1.205041,1.78359 -2.066262,3.82995 -2.275775,5.97224 -0.15566,1.59164 0.05462,3.22418 0.658686,4.70494 0.604069,1.48075 1.606124,2.80454 2.899335,3.74536 1.263348,0.91909 2.766708,1.45639 4.287084,1.81589 1.520375,0.3595 3.074797,0.55236 4.60797,0.85263 7.370908,1.44359 14.083393,5.35177 19.811876,10.20963 5.728482,4.85785 10.567891,10.66196 15.323585,16.47553 3.2235,3.94055 6.4373,7.92065 8.9916,12.32455 2.55431,4.4039 4.44214,9.28185 4.79573,14.36061 0.0672,0.96543 0.0846,1.96063 0.46502,2.8505 0.1902,0.44493 0.4731,0.85669 0.85459,1.15437 0.38148,0.29768 0.86609,0.47468 1.34891,0.44266 0.45795,-0.0304 0.89342,-0.24698 1.22674,-0.56247 0.33333,-0.31549 0.56884,-0.72502 0.71907,-1.1587 0.30045,-0.86735 0.26739,-1.80851 0.27795,-2.72636 z"
       style="fill:url(#Strips1_64);stroke:#000000;stroke-width:1px;stroke-linecap:butt;stroke-linejoin:miter;stroke-opacity:1;fill-opacity:1" />
    <path
       inkscape:original-d="m 46.254278,186.05501 c 3.26052,0.59401 6.524039,-7.41354 9.784559,-11.11881 3.26052,-3.70528 7.413545,-6.22754 11.118817,-9.33981 3.705272,-3.11227 -1.778011,-9.19256 -2.668516,-13.78733 -0.890505,-4.59478 -10.080061,1.185 -15.121591,1.77901 -5.04153,0.594 -10.080061,9.19055 -15.121591,13.78733 -5.04153,4.59678 1.483509,11.26607 2.223763,16.9006 0.740255,5.63454 6.52404,1.18501 9.784559,1.77901 z"
       inkscape:path-effect="#path-effect5135"
       inkscape:connector-curvature="0"
       id="path5133"
       d="m 46.254278,186.05501 c 2.291386,-0.99743 4.00071,-2.979 5.41856,-5.03691 1.41785,-2.05792 2.642289,-4.27244 4.365999,-6.0819 1.677669,-1.76113 3.762228,-3.0691 5.768103,-4.44482 2.005875,-1.37572 3.993092,-2.87682 5.350714,-4.89499 1.463552,-2.17564 2.101835,-4.91538 1.639783,-7.49645 -0.462053,-2.58107 -2.047601,-4.96248 -4.308299,-6.29088 -2.289348,-1.34523 -5.110242,-1.56706 -7.721089,-1.08307 -2.610847,0.48398 -5.052653,1.62177 -7.400502,2.86208 -3.068074,1.62079 -6.047082,3.4457 -8.683225,5.70197 -2.636144,2.25628 -4.928521,4.9612 -6.438366,8.08536 -1.328633,2.7492 -2.033943,5.83938 -1.732577,8.8779 0.301366,3.03851 1.658878,6.01147 3.95634,8.0227 1.316079,1.15211 2.926579,1.97726 4.643617,2.31074 1.717038,0.33348 3.537175,0.16638 5.140942,-0.53173 z"
       style="fill:url(#Strips1_64);stroke:#000000;stroke-width:1px;stroke-linecap:butt;stroke-linejoin:miter;stroke-opacity:1;fill-opacity:1" />
    <path
       inkscape:original-d="m 177.90107,162.48312 c -1.33526,-2.96402 -3.85352,-7.41354 -5.78178,-11.11882 -1.92827,-3.70527 7.71004,-4.74502 11.56356,-7.11604 3.85353,-2.37101 12.15758,9.19056 18.23486,13.78733 6.07729,4.59678 1.48351,13.63809 2.22377,20.45863 0.74025,6.82054 -5.33603,2.37101 -8.00555,3.55802 -2.66952,1.18701 -9.48706,-7.11704 -14.23209,-10.67407 -4.74502,-3.55702 -2.66751,-5.93103 -4.00277,-8.89505 z"
       inkscape:path-effect="#path-effect5139"
       inkscape:connector-curvature="0"
       id="path5137"
       d="m 177.90107,162.48312 c -1.13271,-1.80912 -2.59952,-3.38645 -3.79334,-5.15584 -0.59691,-0.8847 -1.12667,-1.82091 -1.49298,-2.82331 -0.36632,-1.0024 -0.5662,-2.07478 -0.49546,-3.13967 0.0842,-1.26824 0.55527,-2.50054 1.29232,-3.53605 0.73705,-1.0355 1.73423,-1.87623 2.85293,-2.47958 2.23739,-1.20672 4.89992,-1.44648 7.41831,-1.10041 3.89253,0.5349 7.52284,2.40257 10.55408,4.90247 3.03124,2.4999 5.50174,5.61535 7.68078,8.88486 2.04833,3.07339 3.88843,6.3797 4.57178,10.00936 0.34168,1.81483 0.3848,3.69598 0.0163,5.50555 -0.36855,1.80956 -1.15769,3.54568 -2.36426,4.94372 -1.96721,2.27939 -4.99468,3.54345 -8.00555,3.55802 -3.13225,0.0151 -6.19567,-1.25675 -8.62879,-3.22936 -2.43312,-1.97262 -4.26774,-4.61142 -5.6033,-7.44471 -1.38799,-2.9445 -2.2753,-6.13598 -4.00277,-8.89505 z"
       style="fill:url(#Strips1_64);stroke:#000000;stroke-width:1px;stroke-linecap:butt;stroke-linejoin:miter;stroke-opacity:1;fill-opacity:1" />
  </g>
  <path
     style="fill:#bad7f4;stroke:#000000;stroke-width:1px;stroke-linecap:round;stroke-linejoin:round;stroke-opacity:1;fill-opacity:0.66976744;paint-order:stroke fill markers"
     d="m 181.30185,125.30779 c -4.52426,5.02765 -10.74027,8.50543 -17.39197,9.7306 -5.54487,1.0213 -11.27131,0.50817 -16.80332,-0.58057 -5.53202,-1.08874 -10.9354,-2.74421 -16.42479,-4.03075 -12.8974,-3.02274 -26.54139,-3.96697 -39.331719,-0.51915 -9.186578,2.47638 -17.913092,7.18865 -27.420127,7.56543 -6.242541,0.2474 -12.548657,-1.46777 -17.805908,-4.84295 6.425589,2.18821 13.475973,2.5062 20.072457,0.9053 6.246855,-1.51605 11.962111,-4.66993 18.032117,-6.78573 9.163931,-3.19424 19.03265,-3.97471 28.72278,-3.44357 8.66643,0.47503 17.2523,1.97436 25.69892,3.97116 7.65789,1.81034 15.34774,4.04714 23.21462,3.86597 6.84495,-0.15764 13.63718,-2.19693 19.43694,-5.83574 z"
     id="D"
     inkscape:connector-curvature="0"
     inkscape:path-effect="#path-effect7967"
     inkscape:original-d="m 181.30185,125.30779 c 0,0 -10.21368,8.68131 -17.39197,9.7306 -6.09313,0.89067 -21.79145,-1.06784 -33.22811,-4.61132 -12.44148,-3.8548 -28.2971,-4.02339 -39.331719,-0.51915 -12.155878,3.86031 -17.583046,7.06952 -27.420127,7.56543 -8.23033,0.41491 -17.805908,-4.84295 -17.805908,-4.84295 0,0 11.608955,4.71797 20.072457,0.9053 6.649326,-2.99541 8.94703,-4.67308 18.032117,-6.78573 7.359505,-1.71139 17.74572,-3.70413 28.72278,-3.44357 13.21814,0.31376 15.79453,0.91209 25.69892,3.97116 9.37454,2.89542 15.00107,4.08153 23.21462,3.86597 8.60419,-0.22581 19.43694,-5.83574 19.43694,-5.83574 z"
     sodipodi:nodetypes="csssscsssssc"
     inkscape:label="#path7965" />
  <path
     style="fill:#ffff69;stroke:#000000;stroke-width:1px;stroke-linecap:butt;stroke-linejoin:miter;stroke-opacity:1;fill-opacity:0.66976744"
     d="m 155.84883,137.82294 c 0.1287,0.87616 0.55409,2.61026 0.9154,3.55216 0.36132,0.9419 0.65778,1.09013 1.60549,0.92766 0.94771,-0.16248 2.54894,-0.63603 3.98676,-1.10773 1.43781,-0.4717 2.72103,-0.94424 4.03845,-1.42135 1.31742,-0.47711 2.6599,-0.95551 3.82478,-1.40098 1.16488,-0.44547 2.14275,-0.85441 2.61297,-1.26305 0.47023,-0.40865 0.43316,-0.81644 0.34086,-1.45197 -0.0923,-0.63553 -0.23978,-1.49887 -0.46288,-1.85047 -0.22309,-0.3516 -0.479,-0.21512 -1.37172,0.17546 -0.89273,0.39058 -2.38732,1.01794 -4.21354,1.55566 -1.82623,0.53772 -3.97414,0.98212 -5.87413,1.19535 -1.89999,0.21323 -3.5484,0.1947 -4.45643,0.19464 -0.90803,-6e-5 -1.07472,0.0185 -0.94601,0.89462 z"
     id="FPL"
     inkscape:connector-curvature="0"
     inkscape:path-effect="#path-effect7991"
     inkscape:original-d="m 155.55225,136.96544 c 0.42645,1.73337 0.85184,3.46747 1.27636,5.20309 0.29754,0.14727 0.594,0.2955 0.8895,0.44475 1.59913,-0.47365 3.20036,-0.94721 4.7944,-1.41793 1.28158,-0.47257 2.56479,-0.94512 3.84918,-1.41746 1.35046,-0.48189 2.69294,-0.96029 4.04107,-1.44007 0.98162,-0.41109 1.95949,-0.82003 2.93728,-1.22835 -0.036,-0.40857 -0.0731,-0.81636 -0.11118,-1.22307 -0.14649,-0.86444 -0.29397,-1.72778 -0.44245,-2.59017 -0.29544,0.16575 -0.55494,0.2955 -0.83391,0.44475 -1.50649,0.63178 -3.00108,1.25914 -4.50312,1.8902 -2.15037,0.44411 -4.29828,0.88851 -6.44891,1.33426 -1.64918,-0.0195 -3.29759,-0.0381 -4.94788,-0.0556 -0.16588,0.0175 -0.33256,0.0361 -0.50034,0.0556 z"
     sodipodi:nodetypes="ccsccccccccccc"
     inkscape:label="#path7989" />
  <path
     style="fill:#abff47;stroke:#000000;stroke-width:1px;stroke-linecap:butt;stroke-linejoin:miter;stroke-opacity:1;fill-opacity:0.66976744"
     d="m 135.85185,138.00705 c -0.0201,0.43008 -0.0603,1.29103 0.10495,1.88915 0.16526,0.59812 0.53577,0.93158 3.6789,1.41831 3.14314,0.48673 9.0577,1.12654 12.20965,1.2235 3.15194,0.097 3.5411,-0.34779 3.52201,-1.28342 -0.0191,-0.93563 -0.44532,-2.36254 -0.78807,-3.21468 -0.34275,-0.85214 -0.60218,-1.13011 -1.71475,-1.37107 -1.11257,-0.24096 -3.07363,-0.44447 -5.15953,-0.81524 -2.0859,-0.37077 -4.28948,-0.90778 -6.29139,-1.42678 -2.00192,-0.51901 -3.79781,-1.01889 -4.70677,-1.03805 -0.90895,-0.0192 -0.92748,0.44382 -0.91826,1.22217 0.009,0.77834 0.0463,1.87171 0.0648,2.41887 0.0185,0.54716 0.0186,0.54716 -0.002,0.97724 z"
     id="PPL"
     inkscape:connector-curvature="0"
     inkscape:path-effect="#path-effect7999"
     inkscape:original-d="m 135.87194,137.57697 c -0.0392,0.86021 -0.0794,1.72116 -0.12068,2.58363 0.37174,0.33267 0.74225,0.66613 1.11189,1.0007 5.91581,0.63884 11.83037,1.27865 17.74405,1.91948 0.39016,-0.44575 0.77932,-0.8905 1.16748,-1.33425 -0.42523,-1.42793 -0.85145,-2.85484 -1.27867,-4.28076 -0.25844,-0.27896 -0.51787,-0.55693 -0.77831,-0.8339 -1.96562,-0.20508 -3.92668,-0.40859 -5.89298,-0.61154 -2.20532,-0.53868 -4.4089,-1.07568 -6.61569,-1.61223 -1.797,-0.50147 -3.59289,-1.00136 -5.39263,-1.50104 -0.0175,0.46259 -0.0361,0.92557 -0.0556,1.38985 0.038,1.09234 0.0751,2.1857 0.11113,3.28006 z"
     sodipodi:nodetypes="cccccccccccc"
     inkscape:label="#path7997" />
  <path
     style="fill:#ff6969;stroke:#000000;stroke-width:1px;stroke-linecap:butt;stroke-linejoin:miter;stroke-opacity:1;fill-opacity:0.66976744"
     d="m 114.43804,130.8475 c -0.0355,1.35723 -0.1064,4.07192 -0.0109,5.60743 0.0955,1.53551 0.35751,1.88921 3.63393,2.32427 3.27641,0.43507 9.56617,0.95115 12.82889,1.01201 3.26272,0.0609 3.49859,-0.33224 3.59922,-1.45655 0.10063,-1.1243 0.0667,-2.97996 -0.13361,-4.11693 -0.20035,-1.13697 -0.56738,-1.55643 -1.59659,-1.95482 -1.02922,-0.39839 -2.72137,-0.77604 -4.53283,-1.14536 -1.81145,-0.36933 -3.73873,-0.7296 -5.95931,-1.1043 -2.22058,-0.3747 -4.72933,-0.76294 -6.0775,-0.85307 -1.34817,-0.0901 -1.53149,0.11939 -1.62367,0.22474 -0.0922,0.10536 -0.0922,0.10536 -0.12764,1.46258 z"
     id="MPL"
     inkscape:connector-curvature="0"
     inkscape:path-effect="#path-effect8003"
     inkscape:original-d="m 114.4735,129.49028 c -0.07,2.71447 -0.14089,5.42917 -0.21286,8.14643 0.26314,0.3529 0.52514,0.7066 0.78622,1.0614 6.29072,0.51508 12.58048,1.03116 18.86926,1.54825 0.23686,-0.39411 0.47273,-0.78722 0.7076,-1.17933 -0.0329,-1.85669 -0.0668,-3.71235 -0.10166,-5.56703 -0.36577,-0.42017 -0.7328,-0.83963 -1.1007,-1.25795 -1.69133,-0.37869 -3.38348,-0.75634 -5.07786,-1.13327 -1.92858,-0.3617 -3.85586,-0.72198 -5.78614,-1.08163 -2.51091,-0.38973 -5.01967,-0.77796 -7.53353,-1.16584 -0.18258,0.2088 -0.3659,0.41832 -0.55035,0.62897 0.001,-0.001 0.001,-0.001 2e-5,0 z"
     sodipodi:nodetypes="cccccccccccc"
     inkscape:label="#path8001" />
  <path
     style="fill:#ffff69;stroke:#000000;stroke-width:1px;stroke-linecap:butt;stroke-linejoin:miter;stroke-opacity:1;fill-opacity:0.66976744"
     d="m 72.019022,138.41944 c -0.02777,0.89209 -0.08332,2.67675 -0.240911,3.67319 -0.157589,0.99644 -0.416753,1.20307 -1.377533,1.24118 -0.96078,0.0381 -2.625477,-0.0922 -4.129943,-0.25463 -1.504467,-0.16245 -2.857886,-0.35788 -4.245718,-0.55065 -1.387832,-0.19278 -2.800438,-0.38161 -4.032479,-0.57515 -1.232041,-0.19354 -2.273565,-0.39023 -2.818475,-0.69217 -0.544911,-0.30194 -0.593435,-0.70855 -0.63528,-1.34938 -0.04184,-0.64083 -0.07709,-1.51596 0.06802,-1.90626 0.14511,-0.3903 0.423809,-0.31 1.378231,-0.11357 0.954423,0.19643 2.546789,0.49934 4.444909,0.64561 1.898119,0.14628 4.091489,0.13439 5.994293,-0.0521 1.902803,-0.18646 3.511337,-0.54731 4.399504,-0.73618 0.888166,-0.18888 1.055066,-0.20547 1.139113,-0.21383 0.08405,-0.008 0.08404,-0.008 0.05627,0.88391 z"
     id="FPR"
     inkscape:connector-curvature="0"
     inkscape:path-effect="#path-effect7991-8"
     inkscape:original-d="m 72.046791,137.52735 c -0.05674,1.78414 -0.1123,3.5688 -0.166682,5.35475 -0.260421,0.20592 -0.519585,0.41255 -0.777596,0.61997 -1.662663,-0.1308 -3.32736,-0.2611 -4.984436,-0.39013 -1.351826,-0.19578 -2.705244,-0.39122 -4.059772,-0.58621 -1.421139,-0.19059 -2.833749,-0.37939 -4.25217,-0.56841 -1.045644,-0.19798 -2.087164,-0.39469 -3.128481,-0.5908 -0.04973,-0.40712 -0.09823,-0.81373 -0.145531,-1.21947 -0.0364,-0.87601 -0.07168,-1.75113 -0.105747,-2.62554 0.323447,0.10066 0.604251,0.17365 0.908157,0.26165 1.604921,0.30475 3.197288,0.60765 4.797708,0.91263 2.195715,-0.0127 4.389085,-0.0246 6.585396,-0.0357 1.609088,-0.36196 3.217605,-0.72288 4.828198,-1.08311 0.165949,-0.0167 0.332779,-0.034 0.500963,-0.0498 z"
     sodipodi:nodetypes="ccsccccccccccc"
     inkscape:label="#path7989-7" />
  <path
     style="fill:#abff47;stroke:#000000;stroke-width:1px;stroke-linecap:butt;stroke-linejoin:miter;stroke-opacity:1;fill-opacity:0.66976744"
     d="m 92.111465,135.90012 c 0.01912,0.37316 0.05731,1.11835 -0.123248,1.7054 -0.180556,0.58705 -0.578349,1.00841 -3.601518,1.95268 -3.023169,0.94428 -8.652139,2.40434 -11.673358,2.84503 -3.021219,0.44069 -3.401507,-0.14314 -3.500362,-1.08901 -0.09886,-0.94587 0.08415,-2.25228 0.251104,-3.05758 0.16695,-0.8053 0.316698,-1.10767 1.25023,-1.47745 0.933533,-0.36978 2.634273,-0.80182 4.711424,-1.51402 2.077151,-0.7122 4.508956,-1.69728 6.683477,-2.47576 2.174521,-0.77847 4.074787,-1.3444 5.035936,-1.37949 0.96115,-0.0351 0.975563,0.46196 0.975665,1.23728 1.03e-4,0.77532 -0.01417,1.82676 -0.02132,2.35325 -0.0071,0.5265 -0.0072,0.5265 0.01197,0.89967 z"
     id="PPR"
     inkscape:connector-curvature="0"
     inkscape:path-effect="#path-effect7999-2"
     inkscape:original-d="m 92.092343,135.52695 c 0.03929,0.74628 0.07748,1.49147 0.114905,2.24237 -0.399559,0.42328 -0.797354,0.84463 -1.197752,1.26869 -5.646147,1.46377 -11.275115,2.92384 -16.935167,4.3927 -0.381048,-0.58754 -0.761333,-1.17138 -1.143309,-1.75527 0.183948,-1.30697 0.366957,-2.61338 0.549028,-3.91923 0.151389,-0.30467 0.301139,-0.60704 0.451014,-0.91069 1.716605,-0.43682 3.417345,-0.86886 5.128485,-1.30279 2.443133,-0.99027 4.87494,-1.97535 7.31508,-2.96322 1.908917,-0.56921 3.809181,-1.13515 5.717233,-1.7027 0.01547,0.49799 0.02988,0.99504 0.04333,1.49436 -0.01329,1.05136 -0.02756,2.1028 -0.04284,3.15578 z"
     sodipodi:nodetypes="ccccccccccccc"
     inkscape:label="#path7997-9" />
  <path
     style="fill:#ff6969;stroke:#000000;stroke-width:1px;stroke-linecap:butt;stroke-linejoin:miter;stroke-opacity:1;fill-opacity:0.66976744"
     d="m 113.24979,129.34361 c 0.0612,2.87254 0.12218,5.73266 -0.11627,7.25205 -0.23845,1.51938 -0.77357,1.67225 -4.00487,1.76263 -3.2313,0.0904 -9.140107,0.11715 -12.235678,-0.0593 -3.095571,-0.17642 -3.349337,-0.55436 -3.487091,-1.80936 -0.137753,-1.25501 -0.159133,-3.38567 0.05772,-4.56546 0.216855,-1.17979 0.669619,-1.40844 1.714716,-1.68749 1.045098,-0.27905 2.67016,-0.60573 4.559498,-0.83402 1.889343,-0.22828 4.024803,-0.356 6.188163,-0.45871 2.16337,-0.10272 4.34678,-0.17997 5.57153,-0.10899 1.22474,0.071 1.48833,0.28965 1.75228,0.50862 0,0 0,-10e-6 0,-10e-6 z"
     id="MPR"
     inkscape:connector-curvature="0"
     inkscape:path-effect="#path-effect8003-1"
     inkscape:original-d="m 113.24979,129.34361 c 0,0 0.1232,5.73264 0.18366,8.61763 -0.53857,0.15314 -1.07369,0.30601 -1.61229,0.46059 -5.92381,0.0258 -11.832622,0.0526 -17.7688,0.0805 -0.253807,-0.38049 -0.507574,-0.75843 -0.762843,-1.13612 -0.02038,-2.13156 -0.04176,-4.26222 -0.06414,-6.39198 0.454881,-0.23021 0.907646,-0.45885 1.36158,-0.68759 1.636305,-0.32974 3.261367,-0.65642 4.894336,-0.98389 2.145807,-0.12927 4.281267,-0.25698 6.424487,-0.38422 2.18354,-0.0782 4.36695,-0.15547 6.55217,-0.23182 0.2652,0.21818 0.79184,0.65691 0.79184,0.65691 z"
     sodipodi:nodetypes="cccccccccccc"
     inkscape:label="#path8001-2" />
  <path
     style="fill:#800080;stroke:#000000;stroke-width:1px;stroke-linecap:butt;stroke-linejoin:miter;stroke-opacity:1;fill-opacity:0.29767442"
     d="m 53.004288,140.06441 c 0.01312,-0.35432 0.03933,-1.06191 -0.1308,-1.62457 -0.170129,-0.56267 -0.537568,-0.9826 -1.729573,-1.65067 -1.192005,-0.66808 -3.210308,-1.58549 -5.897113,-3.45969 -2.686805,-1.8742 -6.040587,-4.70395 -7.966979,-6.63045 -1.926392,-1.9265 -2.424314,-2.94855 -2.542281,-2.85724 -0.117966,0.0913 0.144212,1.29733 0.314718,2.37313 0.170506,1.0758 0.248898,2.01651 0.262053,2.85542 0.01315,0.8389 -0.03921,1.572 2.664224,3.50113 2.703435,1.92912 8.146635,5.04326 11.108467,6.54997 2.961832,1.5067 3.433593,1.40186 3.668876,1.34958 0.235283,-0.0523 0.235285,-0.0523 0.248408,-0.40661 z"
     id="EPR"
     inkscape:connector-curvature="0"
     inkscape:path-effect="#path-effect8037"
     inkscape:original-d="m 52.991165,140.41873 c 0.02721,-0.7086 0.05342,-1.41619 0.07862,-2.12279 -0.365365,-0.4197 -0.732805,-0.83963 -1.100707,-1.25795 -2.016621,-0.9181 -4.034924,-1.83551 -6.053887,-2.75177 -3.354286,-2.83202 -6.708069,-5.66177 -10.063604,-8.49116 -0.496952,-1.02312 -0.994877,-2.04517 -1.493816,-3.06626 0.262967,1.20405 0.525146,2.41007 0.786219,3.61661 0.105894,0.94305 0.158244,1.88593 0.235866,2.83039 -0.05147,0.73351 -0.103829,1.46661 -0.157244,2.20141 5.460038,3.1222 10.903238,6.23634 16.353357,9.35601 0.472703,-0.10582 0.944463,-0.21066 1.415194,-0.31449 z"
     inkscape:label="#path8035" />
  <path
     style="fill:#800080;stroke:#000000;stroke-width:1px;stroke-linecap:butt;stroke-linejoin:miter;stroke-opacity:1;fill-opacity:0.29767442"
     d="m 174.61184,135.3324 c -0.0684,-0.34792 -0.20495,-1.04268 -0.12493,-1.62504 0.08,-0.58235 0.37723,-1.05459 1.45006,-1.90091 1.07282,-0.84632 2.92275,-2.06815 5.28329,-4.33959 2.36054,-2.27144 5.23036,-5.59101 6.83166,-7.79515 1.60131,-2.20414 1.93321,-3.2915 2.06401,-3.21976 0.13081,0.0717 0.0605,1.30393 0.0604,2.39315 -1.1e-4,1.08923 0.0696,2.03062 0.18786,2.86126 0.11825,0.83063 0.28464,1.54653 -2.08373,3.87481 -2.36838,2.32828 -7.25739,6.25558 -9.94705,8.20707 -2.68966,1.95149 -3.17203,1.92175 -3.41259,1.90692 -0.24056,-0.0148 -0.2406,-0.0148 -0.30899,-0.36276 z"
     id="EPL"
     inkscape:connector-curvature="0"
     inkscape:path-effect="#path-effect8037-3"
     inkscape:original-d="m 174.68023,135.68031 c -0.13767,-0.69565 -0.27429,-1.3904 -0.40971,-2.08436 0.29522,-0.47169 0.59243,-0.94393 0.89036,-1.41465 1.84818,-1.22227 3.69811,-2.44411 5.5489,-3.66493 2.86996,-3.32187 5.73977,-6.64144 8.61137,-9.9609 0.3308,-1.08829 0.66269,-2.17565 0.99577,-3.26221 -0.0714,1.23036 -0.14166,2.46255 -0.21077,3.69507 0.0427,0.94803 0.13877,1.88747 0.20982,2.83244 0.16559,0.71643 0.33195,1.43233 0.49967,2.14972 -4.9044,3.9379 -9.79341,7.8652 -14.68841,11.79904 -0.48343,-0.0305 -0.96579,-0.0603 -1.44696,-0.0892 z"
     inkscape:label="#path8035-0" />
  <path
     style="fill:#dc0000;stroke:#000000;stroke-width:1px;stroke-linecap:butt;stroke-linejoin:miter;stroke-opacity:1;fill-opacity:0.66976744"
     d="m 93.63869,139.78975 19.26237,-0.0786 -0.0786,9.82774 -19.262372,-0.47173 z"
     id="MHR"
     inkscape:connector-curvature="0"
     sodipodi:nodetypes="ccccc"
     inkscape:label="#path8071" />
  <path
     style="fill:#dc0000;stroke:#000000;stroke-width:1px;stroke-linecap:butt;stroke-linejoin:miter;stroke-opacity:1;fill-opacity:0.66976744"
     d="m 114.4735,139.71113 19.7341,1.96555 0.15724,8.56978 -19.89134,-0.55035 z"
     id="MHL"
     inkscape:connector-curvature="0"
     sodipodi:nodetypes="ccccc"
     inkscape:label="#path8073" />
  <path
     style="fill:#549a00;stroke:#000000;stroke-width:0.96801478px;stroke-linecap:butt;stroke-linejoin:miter;stroke-opacity:1;fill-opacity:0.66976744"
     d="m 135.71081,142.47853 0.12449,7.75977 20.19258,-0.14987 -0.54379,-5.84174 z"
     id="PHL"
     inkscape:connector-curvature="0"
     sodipodi:nodetypes="ccccc"
     inkscape:label="#path8075" />
  <path
     style="fill:#cda400;stroke:#000000;stroke-width:1px;stroke-linecap:butt;stroke-linejoin:miter;stroke-opacity:1;fill-opacity:0.66976744"
     d="m 157.12237,143.97984 16.84896,-5.10676 1.02767,3.76363 -17.42629,6.89925 z"
     id="FHL"
     inkscape:connector-curvature="0"
     sodipodi:nodetypes="ccccc"
     inkscape:label="#path8077" />
  <path
     style="fill:#730073;stroke:#000000;stroke-width:1px;stroke-linecap:butt;stroke-linejoin:miter;stroke-opacity:1;fill-opacity:0.82743365"
     d="m 175.37631,137.91844 15.10809,-11.95668 0.45035,4.52288 -14.6094,11.3198 z"
     id="EHL"
     inkscape:connector-curvature="0"
     sodipodi:nodetypes="ccccc"
     inkscape:label="#path8079" />
  <path
     style="fill:#549a00;stroke:#000000;stroke-width:1px;stroke-linecap:butt;stroke-linejoin:miter;stroke-opacity:1;fill-opacity:0.66976744"
     d="m 91.987631,140.41873 -18.240282,4.16697 0.07862,4.48144 18.16166,0.15724 z"
     id="PHR"
     inkscape:connector-curvature="0"
     sodipodi:nodetypes="ccccc"
     inkscape:label="#path8081" />
  <path
     style="fill:#cda400;stroke:#000000;stroke-width:1px;stroke-linecap:butt;stroke-linejoin:miter;stroke-opacity:1;fill-opacity:0.66976744"
     d="m 71.860422,145.05743 -17.454062,-2.04418 -0.07862,4.79594 17.768551,1.25795 z"
     id="FHR"
     inkscape:connector-curvature="0"
     sodipodi:nodetypes="ccccc"
     inkscape:label="#path8083" />
  <path
     style="fill:#730073;stroke:#000000;stroke-width:1px;stroke-linecap:butt;stroke-linejoin:miter;stroke-opacity:1;fill-opacity:0.82743365"
     d="m 52.598056,142.54153 -17.139576,-9.74912 -2e-6,5.26766 17.218197,9.04152 z"
     id="EHR"
     inkscape:connector-curvature="0"
     sodipodi:nodetypes="ccccc"
     inkscape:label="#path8085" />
  <path
     style="fill:none;stroke:#000000;stroke-width:1px;stroke-linecap:butt;stroke-linejoin:miter;stroke-opacity:1"
     d="m 85.874446,167.81925 c 0.407377,5.48558 2.631142,12.5275 7.85725,18.34675 5.226108,5.81924 13.454024,10.41502 21.274674,10.30335 7.82066,-0.11166 15.23319,-4.9298 20.08804,-10.48943 4.85486,-5.55963 7.15275,-11.8603 7.70838,-17.23414 0.55563,-5.37384 -0.63038,-9.82136 -5.67035,-12.30419 -5.03997,-2.48283 -13.93501,-3.00171 -22.71934,-3.00174 -8.78433,-2e-5 -17.45484,0.51872 -22.496335,2.7422 -5.041496,2.22349 -6.449696,6.15163 -6.042319,11.6372 z"
     id="S"
     inkscape:connector-curvature="0"
     inkscape:path-effect="#path-effect8123"
     inkscape:original-d="m 84.058254,166.26353 c 2.224764,7.04092 4.448529,14.08284 6.671293,21.12575 8.228919,4.59478 16.456833,9.19055 24.683763,13.78733 7.41356,-4.81916 14.82609,-9.6373 22.23763,-14.45446 2.29889,-6.30166 4.59678,-12.60232 6.89367,-18.90199 -1.18501,-4.44853 -2.37102,-8.89605 -3.55802,-13.34258 -8.89406,-0.51988 -17.7891,-1.03875 -26.68516,-1.55663 -8.67272,0.51794 -17.343226,1.03669 -26.018026,1.55663 -1.407566,3.92816 -2.815767,7.8563 -4.22515,11.78595 z"
     sodipodi:nodetypes="ccccccccc"
     inkscape:label="#path8121" />
</svg>
