<?xml version="1.0" encoding="UTF-8" standalone="no"?>
<!-- Created with Inkscape (http://www.inkscape.org/) -->

<svg
   xmlns:dc="http://purl.org/dc/elements/1.1/"
   xmlns:cc="http://creativecommons.org/ns#"
   xmlns:rdf="http://www.w3.org/1999/02/22-rdf-syntax-ns#"
   xmlns:svg="http://www.w3.org/2000/svg"
   xmlns="http://www.w3.org/2000/svg"
   xmlns:sodipodi="http://sodipodi.sourceforge.net/DTD/sodipodi-0.dtd"
   xmlns:inkscape="http://www.inkscape.org/namespaces/inkscape"
   version="1.1"
   id="svg4485"
   width="232"
   height="267"
   viewBox="0 0 232 267"
   sodipodi:docname="02.svg"
   inkscape:version="0.92.1 r15371">
  <metadata
     id="metadata4491">
    <rdf:RDF>
      <cc:Work
         rdf:about="">
        <dc:format>image/svg+xml</dc:format>
        <dc:type
           rdf:resource="http://purl.org/dc/dcmitype/StillImage" />
        <dc:title></dc:title>
      </cc:Work>
    </rdf:RDF>
  </metadata>
  <defs
     id="defs4489">
    <inkscape:path-effect
       effect="spiro"
       id="path-effect5139"
       is_visible="true" />
    <inkscape:path-effect
       effect="spiro"
       id="path-effect5135"
       is_visible="true" />
    <inkscape:path-effect
       effect="spiro"
       id="path-effect5131"
       is_visible="true" />
    <inkscape:path-effect
       effect="spiro"
       id="path-effect5109"
       is_visible="true" />
    <inkscape:path-effect
       effect="spiro"
       id="path-effect5105"
       is_visible="true" />
    <inkscape:path-effect
       effect="spiro"
       id="path-effect5109-3"
       is_visible="true" />
  </defs>
  <sodipodi:namedview
     pagecolor="#ffffff"
     bordercolor="#666666"
     borderopacity="1"
     objecttolerance="10"
     gridtolerance="10"
     guidetolerance="10"
     inkscape:pageopacity="0"
     inkscape:pageshadow="2"
     inkscape:window-width="1920"
     inkscape:window-height="1018"
     id="namedview4487"
     showgrid="false"
     inkscape:zoom="2.2484407"
     inkscape:cx="142.35696"
     inkscape:cy="124.10064"
     inkscape:window-x="-8"
     inkscape:window-y="-8"
     inkscape:window-maximized="1"
     inkscape:current-layer="svg4485" />
  <g
     id="g000"
     inkscape:label="#g5148">
    <path
       inkscape:original-d="M 113.85668,12.603158 C 97.696338,8.6639118 67.603407,32.000379 44.475267,41.700523 c -23.128139,9.700144 -5.336032,6.364027 -8.005548,9.547573 -2.669516,3.183547 -5.336032,33.036612 -8.005548,49.556454 -2.669516,16.51983 8.006548,17.88173 12.008322,26.82413 4.001774,8.9424 12.454075,4.84854 18.679613,7.27435 6.225537,2.42579 6.820541,-2.42581 10.229311,-3.63717 3.408771,-1.21138 27.872168,-5.15368 41.806753,-7.729 13.93458,-2.5753 28.16867,4.84854 42.2515,7.27434 14.08284,2.42581 18.68062,-3.94129 28.01942,-5.9104 9.33881,-1.96911 5.63454,-7.88156 8.4503,-11.8208 2.81577,-3.93924 5.93104,-22.733341 8.89506,-34.098478 C 201.76846,67.616387 174.4923,42.608793 162.33473,24.423962 150.17715,6.2391311 130.01703,16.542403 113.85668,12.603158 Z"
       inkscape:path-effect="#path-effect5109"
       inkscape:connector-curvature="0"
       id="path5107"
       d="M 113.85668,12.603158 C 88.149692,13.02752 62.620137,23.485337 44.475267,41.700523 c -2.935662,2.947038 -5.687642,6.093524 -8.005548,9.547573 -4.778629,7.120918 -7.619603,15.448629 -8.787013,23.944506 -1.16741,8.495876 -0.698429,17.164896 0.781465,25.611948 1.717175,9.80142 5.017559,19.74276 12.008322,26.82413 2.435982,2.46756 5.297829,4.54571 8.498925,5.87831 3.201097,1.3326 6.750115,1.90003 10.180688,1.39604 3.592492,-0.52778 6.902898,-2.18131 10.229311,-3.63717 13.107196,-5.73657 27.529654,-8.66239 41.806753,-7.729 14.2713,0.93301 28.04365,5.63809 42.2515,7.27434 4.88103,0.56213 9.84467,0.75758 14.69103,-0.0507 4.84636,-0.80827 9.59277,-2.66822 13.32839,-5.85971 3.70743,-3.16741 6.24853,-7.46997 8.4503,-11.8208 5.35804,-10.58783 9.15763,-22.235018 8.89506,-34.098478 -0.25334,-11.446774 -4.3422,-22.670207 -10.9135,-32.046284 C 181.31964,37.559161 172.33977,29.991002 162.33473,24.423962 147.63254,16.24332 130.67929,12.325456 113.85668,12.603158 Z"
       style="fill:none;stroke:#000000;stroke-width:1.01106143px;stroke-linecap:butt;stroke-linejoin:miter;stroke-opacity:1" />
    <path
       sodipodi:nodetypes="sssssccscscccs"
       inkscape:original-d="M 113.09477,31.350785 C 100.4188,28.691532 78.148551,46.668958 60.00713,53.217199 c -18.141408,6.54824 -4.185511,4.29614 -6.279446,6.445245 -2.093934,2.149106 -6.409274,27.194184 -8.50321,38.346176 -2.093933,11.15198 5.835484,8.06859 8.974422,14.1053 3.138941,6.03671 13.32684,-0.28494 18.210071,1.35264 8.441253,4.30608 3.570927,-0.74807 6.244727,-1.56582 2.673802,-0.81776 22.752076,-1.70007 33.682196,-3.43858 10.93011,-1.7385 22.09514,3.27309 33.14154,4.91066 11.0464,1.63759 15.09759,0.89739 22.42282,-0.43189 7.32525,-1.32928 7.53294,-8.43384 9.74158,-11.09309 2.20866,-2.659253 1.09421,-15.791271 3.41915,-23.463494 2.32493,-7.672219 -19.07014,-24.554004 -28.60637,-36.829972 -9.53626,-12.275967 -26.68387,-7.544337 -39.35984,-10.203589 z"
       inkscape:path-effect="#path-effect5109-3"
       inkscape:connector-curvature="0"
       id="path5107-9"
       d="m 113.09477,31.350785 c -19.549447,0.348895 -38.555673,8.784956 -53.08764,21.866414 -2.231372,2.008647 -4.370155,4.128288 -6.279446,6.445245 -4.326259,5.249988 -7.433244,11.508813 -8.929407,18.145107 -1.496163,6.636293 -1.372523,13.640314 0.426197,20.201069 1.503345,5.48339 4.327197,10.82949 8.974422,14.1053 2.612563,1.84158 5.730301,2.95875 8.917909,3.19553 3.187609,0.23677 6.436187,-0.40751 9.292162,-1.84289 2.07074,-0.56395 4.152883,-1.08603 6.244727,-1.56582 11.032356,-2.53038 22.372036,-3.88121 33.682196,-3.43858 11.17301,0.43726 22.1987,2.6125 33.14154,4.91066 3.73668,0.78476 7.4924,1.58751 11.30774,1.7349 3.81535,0.14739 7.73325,-0.39427 11.11508,-2.16679 4.43574,-2.32491 7.5884,-6.5715 9.74158,-11.09309 3.44989,-7.24462 4.67267,-15.537906 3.41915,-23.463494 C 179.80446,70.439765 176.11277,62.976888 171.01766,56.753139 165.92255,50.52939 159.45943,45.507561 152.45461,41.554374 140.51074,34.813825 126.80721,31.106062 113.09477,31.350785 Z"
       style="fill:none;stroke:#000000;stroke-width:0.73572588px;stroke-linecap:butt;stroke-linejoin:miter;stroke-opacity:1" />
  </g>
  <g
     id="g001"
     inkscape:label="#g5144">
    <path
       inkscape:original-d="m 120.08322,257.21544 c 0.74026,-1.48151 14.82609,-24.90715 22.23764,-37.35922 7.41154,-12.45208 13.04707,-9.19256 19.56911,-13.78734 6.52204,-4.59477 11.26807,-0.8905 16.90061,-1.33425 5.63253,-0.44376 3.85552,-4.74503 5.78178,-7.11605 1.92626,-2.37101 -0.88851,-5.63453 -1.33426,-8.4503 -0.44575,-2.81577 -10.67306,-17.79111 -16.01109,-26.68516 -5.33804,-8.89405 -0.88851,-2.07651 -1.33426,-3.11327 -0.44575,-1.03675 -4.44653,2.37102 -6.67129,3.55802 -2.22477,1.18701 -15.12059,24.60865 -22.68239,36.91448 -7.56179,12.30582 -10.67306,5.03953 -16.0111,7.56079 -5.33803,2.52127 -21.050622,-16.9016 -31.577435,-25.3509 -10.526813,-8.4493 -5.03953,-10.37856 -7.560795,-15.56634 -2.521266,-5.18779 -3.557022,-1.48351 -5.337033,-2.22377 -1.78001,-0.74025 -2.667516,4.15003 -4.002774,6.22654 -1.335258,2.07651 -7.708046,7.70805 -11.563569,11.56357 -3.855523,3.85552 -4.446527,7.11504 -6.67129,10.67406 -2.224764,3.55902 2.373014,5.63254 3.558021,8.4503 1.185007,2.81777 5.931036,1.77801 8.895054,2.66852 2.964017,0.89051 23.42464,17.78911 35.135461,26.68516 11.71082,8.89605 9.19256,17.78911 13.78733,26.68516 4.59478,8.89605 1.78001,2.96402 2.66852,4.44753 0.8885,1.48351 1.48351,-2.96602 2.22376,-4.44753 z"
       inkscape:path-effect="#path-effect5131"
       inkscape:connector-curvature="0"
       id="path5129"
       d="m 120.08322,257.21544 c 0.0855,-7.43136 3.26771,-14.54192 7.53836,-20.6242 4.27064,-6.08227 9.61959,-11.31015 14.69928,-16.73502 2.78242,-2.97149 5.50641,-6.02519 8.68083,-8.57365 3.17442,-2.54846 6.86486,-4.59429 10.88828,-5.21369 2.81446,-0.43328 5.68197,-0.15775 8.52852,-0.0797 2.84655,0.0781 5.78594,-0.0626 8.37209,-1.2546 1.43989,-0.66365 2.73495,-1.64615 3.74159,-2.87105 1.00663,-1.22491 1.72154,-2.69188 2.04019,-4.245 0.58245,-2.83891 -0.16839,-5.79711 -1.33426,-8.4503 -2.09968,-4.77827 -5.4896,-8.84853 -8.64776,-13.00383 -3.15816,-4.1553 -6.18586,-8.59664 -7.36333,-13.68133 -0.12962,-0.55974 -0.23665,-1.12684 -0.42854,-1.66841 -0.19189,-0.54156 -0.47603,-1.06344 -0.90572,-1.44486 -0.54673,-0.4853 -1.30136,-0.70657 -2.03129,-0.66609 -0.72992,0.0405 -1.43346,0.32877 -2.02925,0.75241 -1.19157,0.84728 -1.93145,2.17699 -2.61075,3.4717 -3.37796,6.43824 -6.23685,13.14066 -9.68536,19.5414 -3.44851,6.40074 -7.54631,12.5615 -12.99703,17.37308 -4.49937,3.97179 -10.03542,7.00335 -16.0111,7.56079 -3.6126,0.337 -7.28977,-0.24281 -10.68135,-1.53184 -3.39159,-1.28902 -6.50044,-3.27694 -9.20032,-5.70079 -5.39976,-4.84772 -9.098691,-11.34236 -11.695765,-18.11827 -2.07904,-5.42433 -3.625396,-11.29335 -7.560795,-15.56634 -0.689971,-0.74916 -1.458891,-1.44732 -2.37287,-1.8967 -0.913978,-0.44938 -1.992035,-0.63082 -2.964163,-0.32707 -0.611959,0.19121 -1.157621,0.56584 -1.600368,1.02955 -0.442747,0.46372 -0.786575,1.01472 -1.064023,1.59272 -0.554895,1.15599 -0.849843,2.41871 -1.338383,3.60427 -1.050989,2.55048 -2.962272,4.65721 -5.054969,6.45447 -2.092696,1.79725 -4.394972,3.33651 -6.5086,5.1091 -1.649285,1.38317 -3.190474,2.91824 -4.395515,4.70182 -1.205041,1.78359 -2.066262,3.82995 -2.275775,5.97224 -0.15566,1.59164 0.05462,3.22418 0.658686,4.70494 0.604069,1.48075 1.606124,2.80454 2.899335,3.74536 1.263348,0.91909 2.766708,1.45639 4.287084,1.81589 1.520375,0.3595 3.074797,0.55236 4.60797,0.85263 7.370908,1.44359 14.083393,5.35177 19.811876,10.20963 5.728482,4.85785 10.567891,10.66196 15.323585,16.47553 3.2235,3.94055 6.4373,7.92065 8.9916,12.32455 2.55431,4.4039 4.44214,9.28185 4.79573,14.36061 0.0672,0.96543 0.0846,1.96063 0.46502,2.8505 0.1902,0.44493 0.4731,0.85669 0.85459,1.15437 0.38148,0.29768 0.86609,0.47468 1.34891,0.44266 0.45795,-0.0304 0.89342,-0.24698 1.22674,-0.56247 0.33333,-0.31549 0.56884,-0.72502 0.71907,-1.1587 0.30045,-0.86735 0.26739,-1.80851 0.27795,-2.72636 z"
       style="fill:none;stroke:#000000;stroke-width:1px;stroke-linecap:butt;stroke-linejoin:miter;stroke-opacity:1" />
    <path
       inkscape:original-d="m 46.254278,186.05501 c 3.26052,0.59401 6.524039,-7.41354 9.784559,-11.11881 3.26052,-3.70528 7.413545,-6.22754 11.118817,-9.33981 3.705272,-3.11227 -1.778011,-9.19256 -2.668516,-13.78733 -0.890505,-4.59478 -10.080061,1.185 -15.121591,1.77901 -5.04153,0.594 -10.080061,9.19055 -15.121591,13.78733 -5.04153,4.59678 1.483509,11.26607 2.223763,16.9006 0.740255,5.63454 6.52404,1.18501 9.784559,1.77901 z"
       inkscape:path-effect="#path-effect5135"
       inkscape:connector-curvature="0"
       id="path5133"
       d="m 46.254278,186.05501 c 2.291386,-0.99743 4.00071,-2.979 5.41856,-5.03691 1.41785,-2.05792 2.642289,-4.27244 4.365999,-6.0819 1.677669,-1.76113 3.762228,-3.0691 5.768103,-4.44482 2.005875,-1.37572 3.993092,-2.87682 5.350714,-4.89499 1.463552,-2.17564 2.101835,-4.91538 1.639783,-7.49645 -0.462053,-2.58107 -2.047601,-4.96248 -4.308299,-6.29088 -2.289348,-1.34523 -5.110242,-1.56706 -7.721089,-1.08307 -2.610847,0.48398 -5.052653,1.62177 -7.400502,2.86208 -3.068074,1.62079 -6.047082,3.4457 -8.683225,5.70197 -2.636144,2.25628 -4.928521,4.9612 -6.438366,8.08536 -1.328633,2.7492 -2.033943,5.83938 -1.732577,8.8779 0.301366,3.03851 1.658878,6.01147 3.95634,8.0227 1.316079,1.15211 2.926579,1.97726 4.643617,2.31074 1.717038,0.33348 3.537175,0.16638 5.140942,-0.53173 z"
       style="fill:none;stroke:#000000;stroke-width:1px;stroke-linecap:butt;stroke-linejoin:miter;stroke-opacity:1" />
    <path
       inkscape:original-d="m 177.90107,162.48312 c -1.33526,-2.96402 -3.85352,-7.41354 -5.78178,-11.11882 -1.92827,-3.70527 7.71004,-4.74502 11.56356,-7.11604 3.85353,-2.37101 12.15758,9.19056 18.23486,13.78733 6.07729,4.59678 1.48351,13.63809 2.22377,20.45863 0.74025,6.82054 -5.33603,2.37101 -8.00555,3.55802 -2.66952,1.18701 -9.48706,-7.11704 -14.23209,-10.67407 -4.74502,-3.55702 -2.66751,-5.93103 -4.00277,-8.89505 z"
       inkscape:path-effect="#path-effect5139"
       inkscape:connector-curvature="0"
       id="path5137"
       d="m 177.90107,162.48312 c -1.13271,-1.80912 -2.59952,-3.38645 -3.79334,-5.15584 -0.59691,-0.8847 -1.12667,-1.82091 -1.49298,-2.82331 -0.36632,-1.0024 -0.5662,-2.07478 -0.49546,-3.13967 0.0842,-1.26824 0.55527,-2.50054 1.29232,-3.53605 0.73705,-1.0355 1.73423,-1.87623 2.85293,-2.47958 2.23739,-1.20672 4.89992,-1.44648 7.41831,-1.10041 3.89253,0.5349 7.52284,2.40257 10.55408,4.90247 3.03124,2.4999 5.50174,5.61535 7.68078,8.88486 2.04833,3.07339 3.88843,6.3797 4.57178,10.00936 0.34168,1.81483 0.3848,3.69598 0.0163,5.50555 -0.36855,1.80956 -1.15769,3.54568 -2.36426,4.94372 -1.96721,2.27939 -4.99468,3.54345 -8.00555,3.55802 -3.13225,0.0151 -6.19567,-1.25675 -8.62879,-3.22936 -2.43312,-1.97262 -4.26774,-4.61142 -5.6033,-7.44471 -1.38799,-2.9445 -2.2753,-6.13598 -4.00277,-8.89505 z"
       style="fill:none;stroke:#000000;stroke-width:1px;stroke-linecap:butt;stroke-linejoin:miter;stroke-opacity:1" />
  </g>
</svg>
